<svg width="20" height="20" viewBox="0 0 20 20" fill="none" xmlns="http://www.w3.org/2000/svg">
<path d="M6.66699 17.5C6.66699 16.3215 6.66699 15.7322 7.03311 15.3661C7.39923 15 7.98848 15 9.16699 15H10.8337C12.0122 15 12.6014 15 12.9675 15.3661C13.3337 15.7322 13.3337 16.3215 13.3337 17.5V18.3333H6.66699V17.5Z" stroke="#414655" stroke-width="1.5" stroke-linecap="round" stroke-linejoin="round"/>
<path d="M10 10.8335L10 15.0002" stroke="#414655" stroke-width="1.5" stroke-linecap="round" stroke-linejoin="round"/>
<path d="M5 18.3335H15" stroke="#414655" stroke-width="1.5" stroke-linecap="round" stroke-linejoin="round"/>
<path d="M10.8638 2.38884L11.7437 4.16319C11.8637 4.41018 12.1837 4.6471 12.4536 4.69247L14.0485 4.95963C15.0684 5.13101 15.3083 5.87704 14.5734 6.613L13.3335 7.8631C13.1236 8.07482 13.0086 8.48312 13.0736 8.77548L13.4285 10.323C13.7085 11.5479 13.0636 12.0217 11.9887 11.3816L10.4939 10.4893C10.2239 10.328 9.77894 10.328 9.50397 10.4893L8.00913 11.3816C6.93925 12.0217 6.28932 11.5429 6.56929 10.323L6.92425 8.77548C6.98925 8.48312 6.87426 8.07482 6.66428 7.8631L5.42442 6.613C4.6945 5.87704 4.92947 5.13101 5.94936 4.95963L7.54419 4.69247C7.80916 4.6471 8.12912 4.41018 8.24911 4.16319L9.12901 2.38884C9.60896 1.42605 10.3889 1.42605 10.8638 2.38884Z" stroke="#414655" stroke-width="1.5" stroke-linecap="round" stroke-linejoin="round"/>
</svg>
