  <svg
    width="24"
    height="24"
    viewBox="0 0 20 20"
    fill="none"
    xmlns="http://www.w3.org/2000/svg"
  >
    <path
      d="M2.14931 7.18754C2.09039 6.69606 2.06093 6.45033 2.10236 6.24917C2.2206 5.67512 2.7256 5.20966 3.3986 5.0544C3.63444 5 3.93051 5 4.52265 5H15.4767C16.0688 5 16.3649 5 16.6007 5.0544C17.2738 5.20966 17.7788 5.67512 17.897 6.24917C17.9384 6.45033 17.909 6.69606 17.85 7.18754C17.715 8.31391 17.0822 8.93004 15.8757 9.28526L12.3997 10.3086C11.2114 10.6584 10.6173 10.8333 9.99967 10.8333C9.38206 10.8333 8.78792 10.6584 7.59964 10.3086L4.12369 9.28526C2.91713 8.93004 2.28434 8.31391 2.14931 7.18754Z"
      stroke="#414655"
      stroke-width="1.5"
    />
    <path
      d="M2.88569 8.75L2.72215 10.6464C2.42901 14.0459 2.28243 15.7456 3.22278 16.8311C4.16313 17.9167 5.78209 17.9167 9.02001 17.9167H10.98C14.2179 17.9167 15.8369 17.9167 16.7772 16.8311C17.7176 15.7456 17.571 14.0459 17.2778 10.6464L17.1143 8.75"
      stroke="#414655"
      stroke-width="1.5"
      stroke-linecap="round"
      stroke-linejoin="round"
    />
    <path
      d="M12.9163 4.58325L12.852 4.36249C12.5311 3.26246 12.3707 2.71244 11.9888 2.39785C11.6069 2.08325 11.0996 2.08325 10.085 2.08325H9.91439C8.8998 2.08325 8.3925 2.08325 8.01058 2.39785C7.62866 2.71244 7.46824 3.26246 7.1474 4.36249L7.08301 4.58325"
      stroke="#414655"
      stroke-width="1.5"
    />
  </svg>