 <svg
    width="24"
    height="24"
    viewBox="0 0 20 20"
    fill="none"
    xmlns="http://www.w3.org/2000/svg"
  >
    <path
      d="M18.3337 14.5833L1.66699 14.5833"
      stroke="#414655"
      stroke-width="1.5"
      stroke-linecap="round"
      stroke-linejoin="round"
    />
    <path
      d="M18.3337 17.5L18.3337 13.3333C18.3337 11.762 18.3337 10.9763 17.8455 10.4882C17.3573 10 16.5717 10 15.0003 10L5.00033 10C3.42898 10 2.6433 10 2.15515 10.4882C1.66699 10.9763 1.66699 11.762 1.66699 13.3333L1.66699 17.5"
      stroke="#414655"
      stroke-width="1.5"
      stroke-linecap="round"
      stroke-linejoin="round"
    />
    <path
      d="M9.16667 10V8.51113C9.16667 8.19393 9.11899 8.08784 8.87479 7.96281C8.36621 7.70243 7.74888 7.5 7.08333 7.5C6.41779 7.5 5.80046 7.70243 5.29188 7.96281C5.04768 8.08784 5 8.19393 5 8.51113L5 10"
      stroke="#414655"
      stroke-width="1.5"
      stroke-linecap="round"
    />
    <path
      d="M15.0007 10V8.51113C15.0007 8.19393 14.953 8.08784 14.7088 7.96281C14.2002 7.70243 13.5829 7.5 12.9173 7.5C12.2518 7.5 11.6344 7.70243 11.1259 7.96281C10.8817 8.08784 10.834 8.19393 10.834 8.51113L10.834 10"
      stroke="#414655"
      stroke-width="1.5"
      stroke-linecap="round"
    />
    <path
      d="M17.5 10V6.13381C17.5 5.55744 17.5 5.26925 17.3399 4.99711C17.1798 4.72496 16.9516 4.58409 16.4953 4.30236C14.6557 3.16648 12.4161 2.5 10 2.5C7.58389 2.5 5.34429 3.16648 3.50465 4.30236C3.04837 4.58409 2.82022 4.72496 2.66011 4.99711C2.5 5.26925 2.5 5.55744 2.5 6.13381L2.5 10"
      stroke="#414655"
      stroke-width="1.5"
      stroke-linecap="round"
    />
  </svg>