<svg width="24" height="24" viewBox="0 0 24 24" fill="none" xmlns="http://www.w3.org/2000/svg">
<g clip-path="url(#clip0_343_483)">
<path d="M22.5 9H22V8C22 5.243 19.757 3 17 3H13V1C13 0.448 12.553 0 12 0C11.447 0 11 0.448 11 1V3H7C4.243 3 2 5.243 2 8V9H1.5C0.673 9 0 9.673 0 10.5V13.5C0 14.327 0.673 15 1.5 15H2V16C2 18.757 4.243 21 7 21H14.697L18.66 23.642C19.02 23.882 19.435 24.003 19.851 24.003C20.199 24.003 20.547 23.919 20.866 23.748C21.565 23.373 22 22.648 22 21.854V14.999H22.5C23.327 14.999 24 14.326 24 13.499V10.499C24 9.672 23.327 8.999 22.5 8.999V9ZM8.5 8C9.328 8 10 8.672 10 9.5C10 10.328 9.328 11 8.5 11C7.672 11 7 10.328 7 9.5C7 8.672 7.672 8 8.5 8ZM16.531 15.573C15.494 16.224 13.865 17 12 17C10.135 17 8.506 16.224 7.469 15.573C7.001 15.28 6.86 14.662 7.154 14.195C7.448 13.728 8.065 13.586 8.532 13.879C9.347 14.391 10.611 15 12.001 15C13.391 15 14.654 14.391 15.47 13.879C15.936 13.585 16.555 13.727 16.848 14.195C17.142 14.663 17 15.28 16.533 15.573H16.531ZM15.5 11C14.672 11 14 10.328 14 9.5C14 8.672 14.672 8 15.5 8C16.328 8 17 8.672 17 9.5C17 10.328 16.328 11 15.5 11Z" fill="#00AAFF"/>
</g>
<defs>
<clipPath id="clip0_343_483">
<rect width="24" height="24" fill="white"/>
</clipPath>
</defs>
</svg>
