<svg width="24" height="24" viewBox="0 0 24 24" fill="none" xmlns="http://www.w3.org/2000/svg">
<path d="M17.3977 3V4.8M6.59766 3V4.8" stroke="#6B758C" stroke-width="1.5" stroke-linecap="round" stroke-linejoin="round"/>
<path d="M11.9944 12.8999H12.0025M11.9944 16.4999H12.0025M15.5904 12.8999H15.5984M8.39844 12.8999H8.40651M8.39844 16.4999H8.40651" stroke="#6B758C" stroke-width="2" stroke-linecap="round" stroke-linejoin="round"/>
<path d="M4.34766 8.3999H19.6477" stroke="#6B758C" stroke-width="1.5" stroke-linecap="round" stroke-linejoin="round"/>
<path d="M3.44922 12.2188C3.44922 8.29725 3.44922 6.33646 4.57613 5.11818C5.70303 3.8999 7.51676 3.8999 11.1442 3.8999H12.8542C16.4817 3.8999 18.2954 3.8999 19.4223 5.11818C20.5492 6.33646 20.5492 8.29725 20.5492 12.2188V12.681C20.5492 16.6026 20.5492 18.5633 19.4223 19.7816C18.2954 20.9999 16.4817 20.9999 12.8542 20.9999H11.1442C7.51676 20.9999 5.70303 20.9999 4.57613 19.7816C3.44922 18.5633 3.44922 16.6026 3.44922 12.681V12.2188Z" stroke="#6B758C" stroke-width="1.5" stroke-linecap="round" stroke-linejoin="round"/>
<path d="M3.89844 8.3999H20.0984" stroke="#6B758C" stroke-width="1.5" stroke-linecap="round" stroke-linejoin="round"/>
</svg>
