<svg width="32" height="32" viewBox="0 0 32 32" fill="none" xmlns="http://www.w3.org/2000/svg">
<path opacity="0.2" d="M24.6271 22.44L25.1471 26.6533C25.2804 27.7599 24.0938 28.5333 23.1471 27.9599L17.5604 24.6399C16.9471 24.6399 16.3471 24.6 15.7605 24.52C16.7471 23.36 17.3338 21.8933 17.3338 20.3066C17.3338 16.5199 14.0538 13.4533 10.0004 13.4533C8.45378 13.4533 7.02712 13.8933 5.84045 14.6666C5.80045 14.3333 5.78711 13.9999 5.78711 13.6533C5.78711 7.58661 11.0538 2.66663 17.5604 2.66663C24.0671 2.66663 29.3338 7.58661 29.3338 13.6533C29.3338 17.2533 27.4804 20.44 24.6271 22.44Z" fill="#B3B8C6"/>
<path d="M17.3327 20.3066C17.3327 21.8933 16.746 23.36 15.7594 24.52C14.4394 26.12 12.346 27.1466 9.99935 27.1466L6.51935 29.2133C5.93268 29.5733 5.18601 29.08 5.26601 28.4L5.59934 25.7734C3.81268 24.5334 2.66602 22.5466 2.66602 20.3066C2.66602 17.96 3.91936 15.8933 5.83936 14.6667C7.02602 13.8933 8.45268 13.4534 9.99935 13.4534C14.0527 13.4534 17.3327 16.52 17.3327 20.3066Z" fill="#B3B8C6"/>
</svg>
