<svg width="32" height="32" viewBox="0 0 32 32" fill="none" xmlns="http://www.w3.org/2000/svg">
<path opacity="1" d="M27.334 13.5867H23.4806C20.3207 13.5867 17.7473 11.0134 17.7473 7.85341V4.00008C17.7473 3.26675 17.1473 2.66675 16.414 2.66675H10.7607C6.65398 2.66675 3.33398 5.33342 3.33398 10.0934V21.9067C3.33398 26.6667 6.65398 29.3334 10.7607 29.3334H21.2407C25.3473 29.3334 28.6673 26.6667 28.6673 21.9067V14.9201C28.6673 14.1867 28.0673 13.5867 27.334 13.5867Z" fill="#00AAFF"/>
<path d="M21.0676 2.94658C20.5209 2.39991 19.5742 2.77324 19.5742 3.53324V8.18658C19.5742 10.1332 21.2276 11.7466 23.2409 11.7466C24.5076 11.7599 26.2676 11.7599 27.7742 11.7599C28.5342 11.7599 28.9342 10.8666 28.4009 10.3332C26.4809 8.39991 23.0409 4.91991 21.0676 2.94658Z" fill="#00AAFF"/>
<path d="M18 18.3333H10C9.45333 18.3333 9 17.8799 9 17.3333C9 16.7866 9.45333 16.3333 10 16.3333H18C18.5467 16.3333 19 16.7866 19 17.3333C19 17.8799 18.5467 18.3333 18 18.3333Z" fill="white"/>
<path d="M15.3333 23.6667H10C9.45333 23.6667 9 23.2134 9 22.6667C9 22.1201 9.45333 21.6667 10 21.6667H15.3333C15.88 21.6667 16.3333 22.1201 16.3333 22.6667C16.3333 23.2134 15.88 23.6667 15.3333 23.6667Z" fill="white"/>
</svg>
