<svg width="32" height="32" viewBox="0 0 32 32" fill="none" xmlns="http://www.w3.org/2000/svg">
<path opacity="0.2" d="M3.69268 13.3334C3.11935 13.3334 2.66602 12.8801 2.66602 12.3067V9.22675C2.66602 5.61341 5.61268 2.66675 9.22602 2.66675H12.306C12.8793 2.66675 13.3327 3.12008 13.3327 3.69341C13.3327 4.26675 12.8793 4.72008 12.306 4.72008H9.22602C6.73268 4.72008 4.71935 6.74675 4.71935 9.22675V12.3067C4.71935 12.8801 4.25268 13.3334 3.69268 13.3334Z" fill="#00AAFF"/>
<path opacity="0.2" d="M28.306 13.3334C27.746 13.3334 27.2793 12.8801 27.2793 12.3067V9.22675C27.2793 6.73341 25.2527 4.72008 22.7727 4.72008H19.6927C19.1193 4.72008 18.666 4.25341 18.666 3.69341C18.666 3.13341 19.1193 2.66675 19.6927 2.66675H22.7727C26.386 2.66675 29.3327 5.61341 29.3327 9.22675V12.3067C29.3327 12.8801 28.8793 13.3334 28.306 13.3334Z" fill="#00AAFF"/>
<path d="M22.7726 29.3334H20.9192C20.3592 29.3334 19.8926 28.8801 19.8926 28.3067C19.8926 27.7467 20.3459 27.2801 20.9192 27.2801H22.7726C25.2659 27.2801 27.2792 25.2534 27.2792 22.7734V20.9334C27.2792 20.3734 27.7326 19.9067 28.3059 19.9067C28.8659 19.9067 29.3326 20.3601 29.3326 20.9334V22.7734C29.3326 26.3867 26.3859 29.3334 22.7726 29.3334Z" fill="#00AAFF"/>
<path d="M12.306 29.3334H9.22602C5.61268 29.3334 2.66602 26.3867 2.66602 22.7734V19.6934C2.66602 19.1201 3.11935 18.6667 3.69268 18.6667C4.26602 18.6667 4.71935 19.1201 4.71935 19.6934V22.7734C4.71935 25.2667 6.74602 27.2801 9.22602 27.2801H12.306C12.866 27.2801 13.3327 27.7334 13.3327 28.3067C13.3327 28.8801 12.8793 29.3334 12.306 29.3334Z" fill="#00AAFF"/>
<path d="M24.6127 14.9734H22.7994H9.19938H7.38604C6.81271 14.9734 6.35938 15.4401 6.35938 16.0001C6.35938 16.5601 6.81271 17.0267 7.38604 17.0267H9.19938H22.7994H24.6127C25.186 17.0267 25.6394 16.5601 25.6394 16.0001C25.6394 15.4401 25.186 14.9734 24.6127 14.9734Z" fill="#00AAFF"/>
<path d="M9.19922 18.5866V19.0266C9.19922 21.24 10.9859 23.0266 13.1992 23.0266H18.7992C21.0126 23.0266 22.7992 21.24 22.7992 19.0266V18.5866C22.7992 18.4266 22.6792 18.3066 22.5192 18.3066H9.47922C9.31922 18.3066 9.19922 18.4266 9.19922 18.5866Z" fill="#00AAFF"/>
<path opacity="0.2" d="M9.19922 13.4134V12.9734C9.19922 10.7601 10.9859 8.97339 13.1992 8.97339H18.7992C21.0126 8.97339 22.7992 10.7601 22.7992 12.9734V13.4134C22.7992 13.5734 22.6792 13.6934 22.5192 13.6934H9.47922C9.31922 13.6934 9.19922 13.5734 9.19922 13.4134Z" fill="#00AAFF"/>
</svg>
