 <svg
        width="86"
        height="86"
        viewBox="0 0 86 86"
        fill="none"
        xmlns="http://www.w3.org/2000/svg"
      >
        <path
          d="M62 23H34.54L30.84 17.45C30.65 17.17 30.34 17 30.01 17H14C13.45 17 13 17.45 13 18V62C13 62.55 13.45 63 14 63H62C62.55 63 63 62.55 63 62V24C63 23.45 62.55 23 62 23Z"
          fill="#D7D9E0"
        />
        <path
          d="M58 27H18C17.4477 27 17 27.4477 17 28V62C17 62.5523 17.4477 63 18 63H58C58.5523 63 59 62.5523 59 62V28C59 27.4477 58.5523 27 58 27Z"
          fill="white"
        />
        <path
          d="M72.8104 31.42C72.6204 31.16 72.3204 31 72.0004 31H24.0004C23.5704 31 23.1904 31.28 23.0504 31.68L13.0504 61.68C12.9504 61.99 13.0004 62.32 13.1904 62.58C13.3804 62.84 13.6804 63 14.0004 63H62.0004C62.4304 63 62.8104 62.72 62.9504 62.32L72.9504 32.32C73.0504 32.01 73.0004 31.68 72.8104 31.42Z"
          fill="#EDEDF1"
        />
        <path
          d="M62 69C68.0751 69 73 64.0751 73 58C73 51.9249 68.0751 47 62 47C55.9249 47 51 51.9249 51 58C51 64.0751 55.9249 69 62 69Z"
          fill="#00AAFF"
        />
        <path
          d="M62.7103 52.2901C62.3203 51.9001 61.6903 51.9001 61.3003 52.2901L57.3003 56.2901C56.9103 56.6801 56.9103 57.3101 57.3003 57.7001C57.6903 58.0901 58.3203 58.0901 58.7103 57.7001L61.0003 55.4101V63.0001C61.0003 63.5501 61.4503 64.0001 62.0003 64.0001C62.5503 64.0001 63.0003 63.5501 63.0003 63.0001V55.4101L65.2903 57.7001C65.4903 57.9001 65.7403 57.9901 66.0003 57.9901C66.2603 57.9901 66.5103 57.8901 66.7103 57.7001C67.1003 57.3101 67.1003 56.6801 66.7103 56.2901L62.7103 52.2901Z"
          fill="white"
        />
      </svg>