<svg width="18"  viewBox="0 0 18 18" fill="none" xmlns="http://www.w3.org/2000/svg">
<path d="M4.25065 1.29277C3.38462 1.45384 2.74725 1.73873 2.24335 2.24262C1.73946 2.74651 1.45457 3.38388 1.29351 4.24992M13.7507 1.29277C14.6167 1.45384 15.2541 1.73873 15.7579 2.24262C16.2618 2.74651 16.5467 3.38388 16.7078 4.24992M10.584 1.08738C10.097 1.08325 9.57057 1.08325 9.00065 1.08325C8.43073 1.08325 7.90432 1.08325 7.4173 1.08738M16.9132 7.41658C16.9173 7.9036 16.9173 8.43 16.9173 8.99992C16.9173 9.56986 16.9173 10.0963 16.9132 10.5833M1.08811 7.41658C1.08398 7.9036 1.08398 8.43 1.08398 8.99992C1.08398 9.56986 1.08398 10.0963 1.08811 10.5833M1.29351 13.7499C1.45457 14.616 1.73946 15.2533 2.24335 15.7572C2.74725 16.2611 3.38462 16.546 4.25065 16.7071M16.7078 13.7499C16.5467 14.616 16.2618 15.2533 15.7579 15.7572C15.2541 16.2611 14.6167 16.546 13.7507 16.7071M10.584 16.9125C10.097 16.9166 9.57057 16.9166 9.00065 16.9166C8.43078 16.9166 7.90442 16.9166 7.41745 16.9125" stroke="#6B758C" stroke-width="1.5" stroke-linecap="round" stroke-linejoin="round"/>
<path d="M6.62565 8.99992H11.3757M15.334 8.99992H16.9173M1.08398 8.99992H2.66732M9.00065 6.62492V11.3749M9.00065 1.08325V2.66659M9.00065 15.3333V16.9166" stroke="#6B758C" stroke-width="1.5" stroke-linecap="round" stroke-linejoin="round"/>
</svg>
