<svg width="24" height="24" viewBox="0 0 24 24" fill="none" xmlns="http://www.w3.org/2000/svg">
<path d="M19 10.5062H12.032C11.2053 10.5062 10.2405 10.4085 9.56941 10.991C9.15369 11.3518 8.94068 11.9264 8.51464 13.0755L5.94715 19.1496C5.93321 19.188 5.92619 19.2074 5.91951 19.2248C5.63042 19.9775 4.92271 20.48 4.12591 20.4994M19 10.5062V9.5C19 8.08579 19 7.37868 18.5661 6.93934C18.1321 6.5 17.4337 6.5 16.0368 6.5H9.94852M19 10.5062C20.5839 10.5062 21.1672 10.5062 21.6011 10.9456C21.7344 11.0806 21.841 11.24 21.9152 11.4154C22.157 11.9866 21.8627 12.731 21.2741 14.2197L20.7472 15.5526C19.8257 17.8834 19.365 19.0488 18.418 19.7334C18.3526 19.7807 18.2858 19.8259 18.2176 19.8692C17.2309 20.4952 15.9777 20.4913 13.4714 20.4835L4.12591 20.4994M4.12591 20.4994C4.12236 20.4995 4.1188 20.4996 4.11525 20.4997C4.09679 20.5 4.07654 20.5 4.03604 20.5C3.97978 20.5 3.95166 20.5 3.92787 20.4994C2.87415 20.4737 2.02596 19.615 2.00057 18.5482C2 18.5241 2 18.4956 2 18.4387V7.5C2 5.61438 2 4.67157 2.5786 4.08579C3.15719 3.5 4.08843 3.5 5.9509 3.5H6.15448C7.13233 3.5 7.62126 3.5 8.04925 3.70162C8.96231 4.13174 9.5196 5.42798 9.94852 6.5M9.94852 6.5H7.92635" stroke="#414655" stroke-width="1.5" stroke-linecap="round"/>
</svg>
