<svg width="32" height="32" viewBox="0 0 32 32" fill="none" xmlns="http://www.w3.org/2000/svg">
<path d="M28.1194 9.30677C26.9861 8.05344 25.0927 7.42677 22.3461 7.42677H22.0261V7.37344C22.0261 5.13344 22.0261 2.36011 17.0127 2.36011H14.9861C9.97273 2.36011 9.97273 5.14677 9.97273 7.37344V7.44011H9.65273C6.89273 7.44011 5.01273 8.06677 3.8794 9.32011C2.5594 10.7868 2.5994 12.7601 2.73273 14.1068L2.74607 14.2001L2.8794 15.6001C2.89273 15.6134 2.9194 15.6401 2.94607 15.6534C3.38607 15.9468 3.8394 16.2401 4.3194 16.5068C4.50607 16.6268 4.70607 16.7334 4.90607 16.8401C7.18607 18.0934 9.69273 18.9334 12.2394 19.3468C12.3594 20.6001 12.9061 22.0668 15.8261 22.0668C18.7461 22.0668 19.3194 20.6134 19.4127 19.3201C22.1327 18.8801 24.7594 17.9334 27.1327 16.5468C27.2127 16.5068 27.2661 16.4668 27.3327 16.4268C27.9461 16.0801 28.5194 15.7068 29.0794 15.2934C29.1061 15.2801 29.1327 15.2534 29.1461 15.2268L29.1994 14.7468L29.2661 14.1201C29.2794 14.0401 29.2794 13.9734 29.2927 13.8801C29.3994 12.5334 29.3727 10.6934 28.1194 9.30677ZM17.4527 18.4401C17.4527 19.8534 17.4527 20.0668 15.8127 20.0668C14.1727 20.0668 14.1727 19.8134 14.1727 18.4534V16.7734H17.4527V18.4401ZM11.8794 7.42677V7.37344C11.8794 5.10677 11.8794 4.26677 14.9861 4.26677H17.0127C20.1194 4.26677 20.1194 5.12011 20.1194 7.37344V7.44011H11.8794V7.42677Z" fill="#00AAFF"/>
<path opacity="0.2" d="M27.3342 16.4C27.2675 16.44 27.2009 16.48 27.1342 16.52C24.7609 17.9066 22.1342 18.84 19.4142 19.2933C19.3075 20.5733 18.7475 22.04 15.8275 22.04C12.9075 22.04 12.3475 20.5866 12.2409 19.32C9.69419 18.92 7.18753 18.08 4.90753 16.8133C4.70753 16.7066 4.50753 16.6 4.32086 16.48C3.84086 16.2133 3.38753 15.92 2.94753 15.6266C2.92086 15.6133 2.89419 15.5866 2.88086 15.5733L3.69419 24.2533C3.97419 26.9066 5.06753 29.6399 10.9342 29.6399H21.0942C26.9609 29.6399 28.0542 26.9066 28.3342 24.24L29.1742 15.2C29.1609 15.2266 29.1342 15.2533 29.1075 15.2666C28.5342 15.68 27.9475 16.0666 27.3342 16.4Z" fill="#00AAFF"/>
</svg>
