<svg width="32" height="32" viewBox="0 0 32 32" fill="none" xmlns="http://www.w3.org/2000/svg">
<path opacity="0.2" d="M21.5863 2.66675H10.4264C5.57302 2.66675 2.67969 5.56008 2.67969 10.4134V21.5734C2.67969 26.4267 5.57302 29.3201 10.4264 29.3201H21.5863C26.4397 29.3201 29.333 26.4267 29.333 21.5734V10.4134C29.333 5.56008 26.4397 2.66675 21.5863 2.66675Z" fill="#B3B8C6"/>
<path d="M15.3341 10.7866V22.9999C15.3341 23.4799 14.8541 23.7999 14.4141 23.6132C12.8008 22.9199 10.6941 22.2799 9.22746 22.0933L8.97412 22.0666C8.16079 21.9599 7.49414 21.1999 7.49414 20.3733V10.1066C7.49414 9.09324 8.32081 8.33325 9.33415 8.41325C11.0008 8.54658 13.4675 9.3466 15.0142 10.2266C15.2142 10.3199 15.3341 10.5466 15.3341 10.7866Z" fill="#B3B8C6"/>
<path d="M24.506 10.2666V20.3599C24.506 21.1866 23.8394 21.9466 23.026 22.0533L22.746 22.0799C21.2927 22.2799 19.1994 22.9066 17.586 23.5866C17.146 23.7733 16.666 23.4533 16.666 22.9733V10.7732C16.666 10.5332 16.786 10.3066 16.9993 10.1866C18.546 9.31994 20.9594 8.54657 22.5994 8.3999H22.6527C23.6793 8.41324 24.506 9.23993 24.506 10.2666Z" fill="#B3B8C6"/>
</svg>
