<svg width="16" height="16" viewBox="0 0 16 16" fill="none" xmlns="http://www.w3.org/2000/svg">
<path d="M12.5 5.33337V6.73337C12.2067 6.69337 11.8733 6.67337 11.5 6.66671V5.33337C11.5 3.23337 10.9067 1.83337 8 1.83337C5.09333 1.83337 4.5 3.23337 4.5 5.33337V6.66671C4.12667 6.67337 3.79333 6.69337 3.5 6.73337V5.33337C3.5 3.40004 3.96667 0.833374 8 0.833374C12.0333 0.833374 12.5 3.40004 12.5 5.33337Z" fill="#B3B8C6"/>
<path d="M12.5007 6.73329C12.2073 6.69329 11.874 6.67329 11.5007 6.66663H4.50065C4.12732 6.67329 3.79398 6.69329 3.50065 6.73329C1.80065 6.93996 1.33398 7.77329 1.33398 9.99996V11.3333C1.33398 14 2.00065 14.6666 4.66732 14.6666H11.334C14.0007 14.6666 14.6673 14 14.6673 11.3333V9.99996C14.6673 7.77329 14.2007 6.93996 12.5007 6.73329ZM5.80732 11.14C5.68065 11.26 5.50732 11.3333 5.33398 11.3333C5.24732 11.3333 5.16065 11.3133 5.08065 11.28C4.99398 11.2466 4.92732 11.2 4.86065 11.14C4.74065 11.0133 4.66732 10.84 4.66732 10.6666C4.66732 10.58 4.68732 10.4933 4.72065 10.4133C4.75398 10.3333 4.80065 10.26 4.86065 10.1933C4.92732 10.1333 4.99398 10.0866 5.08065 10.0533C5.32732 9.94663 5.62065 10.0066 5.80732 10.1933C5.86732 10.26 5.91398 10.3333 5.94732 10.4133C5.98065 10.4933 6.00065 10.58 6.00065 10.6666C6.00065 10.84 5.92732 11.0133 5.80732 11.14ZM8.61398 10.92C8.58065 11 8.53398 11.0733 8.47398 11.14C8.34732 11.26 8.17398 11.3333 8.00065 11.3333C7.82065 11.3333 7.65398 11.26 7.52732 11.14C7.46732 11.0733 7.42065 11 7.38732 10.92C7.35398 10.84 7.33398 10.7533 7.33398 10.6666C7.33398 10.4866 7.40732 10.32 7.52732 10.1933C7.77398 9.94663 8.22065 9.94663 8.47398 10.1933C8.59398 10.32 8.66732 10.4866 8.66732 10.6666C8.66732 10.7533 8.64732 10.84 8.61398 10.92ZM11.1407 11.14C11.014 11.26 10.8407 11.3333 10.6673 11.3333C10.494 11.3333 10.3207 11.26 10.194 11.14C10.074 11.0133 10.0007 10.8466 10.0007 10.6666C10.0007 10.4866 10.074 10.32 10.194 10.1933C10.4473 9.94663 10.894 9.94663 11.1407 10.1933C11.1673 10.2266 11.194 10.26 11.2207 10.3C11.2473 10.3333 11.2673 10.3733 11.2807 10.4133C11.3007 10.4533 11.314 10.4933 11.3207 10.5333C11.3273 10.58 11.334 10.6266 11.334 10.6666C11.334 10.84 11.2607 11.0133 11.1407 11.14Z" fill="#B3B8C6"/>
</svg>
