  <svg
    width="24"
    height="24"
    viewBox="0 0 20 20"
    fill="none"
    xmlns="http://www.w3.org/2000/svg"
  >
    <path
      d="M12.1248 9.99984C12.1248 11.1504 11.1921 12.0832 10.0415 12.0832C8.89092 12.0832 7.95818 11.1504 7.95818 9.99984C7.95818 8.84924 8.89092 7.9165 10.0415 7.9165C11.1921 7.9165 12.1248 8.84924 12.1248 9.99984Z"
      stroke="#414655"
      stroke-width="1.5"
    />
    <path
      d="M1.66699 9.99992C1.66699 7.05201 1.66699 5.57806 2.54433 4.594C2.68465 4.43661 2.83931 4.29105 3.00654 4.15898C4.0521 3.33325 5.61818 3.33325 8.75033 3.33325H11.2503C14.3825 3.33325 15.9485 3.33325 16.9941 4.15898C17.1613 4.29105 17.316 4.43661 17.4563 4.594C18.3337 5.57806 18.3337 7.05201 18.3337 9.99992C18.3337 12.9478 18.3337 14.4218 17.4563 15.4058C17.316 15.5632 17.1613 15.7088 16.9941 15.8409C15.9485 16.6666 14.3825 16.6666 11.2503 16.6666H8.75033C5.61818 16.6666 4.0521 16.6666 3.00654 15.8409C2.83931 15.7088 2.68465 15.5632 2.54433 15.4058C1.66699 14.4218 1.66699 12.9478 1.66699 9.99992Z"
      stroke="#414655"
      stroke-width="1.5"
      stroke-linecap="round"
      stroke-linejoin="round"
    />
    <path
      d="M15.4248 10H15.4173"
      stroke="#414655"
      stroke-width="2"
      stroke-linecap="round"
      stroke-linejoin="round"
    />
    <path
      d="M4.58398 10H4.5765"
      stroke="#414655"
      stroke-width="2"
      stroke-linecap="round"
      stroke-linejoin="round"
    />
  </svg>