  <svg
    width="16"
    height="16"
    viewBox="0 0 16 16"
    fill="none"
    xmlns="http://www.w3.org/2000/svg"
  >
    <path
      d="M9.33366 3.00016C9.33366 2.26378 8.73671 1.66683 8.00033 1.66683C7.26395 1.66683 6.66699 2.26378 6.66699 3.00016C6.66699 3.73654 7.26395 4.3335 8.00033 4.3335C8.73671 4.3335 9.33366 3.73654 9.33366 3.00016Z"
      fill="#24252D"
    />
    <path
      d="M9.33366 8.00016C9.33366 7.26378 8.73671 6.66683 8.00033 6.66683C7.26395 6.66683 6.66699 7.26378 6.66699 8.00016C6.66699 8.73654 7.26395 9.3335 8.00033 9.3335C8.73671 9.3335 9.33366 8.73654 9.33366 8.00016Z"
      fill="#24252D"
    />
    <path
      d="M9.33366 13.0002C9.33366 12.2638 8.73671 11.6668 8.00033 11.6668C7.26395 11.6668 6.66699 12.2638 6.66699 13.0002C6.66699 13.7365 7.26395 14.3335 8.00033 14.3335C8.73671 14.3335 9.33366 13.7365 9.33366 13.0002Z"
      fill="#24252D"
    />
  </svg>