<svg width="32" height="32" viewBox="0 0 32 32" fill="none" xmlns="http://www.w3.org/2000/svg">
<path opacity="0.2" d="M9.82732 29.3333H22.1607C25.7473 29.3333 28.654 26.4266 28.654 22.84V11.16C28.654 7.57329 25.7473 4.66663 22.1607 4.66663H9.82732C6.24065 4.66663 3.33398 7.57329 3.33398 11.16V22.8266C3.33398 26.4266 6.24065 29.3333 9.82732 29.3333Z" fill="#B3B8C6"/>
<path d="M11.0527 8.38663C10.4927 8.38663 10.0527 7.93329 10.0527 7.38663V3.66663C10.0527 3.11996 10.4927 2.66663 11.0527 2.66663C11.6127 2.66663 12.0527 3.11996 12.0527 3.66663V7.37329C12.0527 7.93329 11.6127 8.38663 11.0527 8.38663Z" fill="#B3B8C6"/>
<path d="M20.9473 8.38663C20.3873 8.38663 19.9473 7.93329 19.9473 7.38663V3.66663C19.9473 3.10663 20.4006 2.66663 20.9473 2.66663C21.5073 2.66663 21.9473 3.11996 21.9473 3.66663V7.37329C21.9473 7.93329 21.5073 8.38663 20.9473 8.38663Z" fill="#B3B8C6"/>
<path d="M19.7058 18.28H9.8125C9.2525 18.28 8.8125 17.8267 8.8125 17.28C8.8125 16.7334 9.26583 16.28 9.8125 16.28H19.7058C20.2658 16.28 20.7058 16.7334 20.7058 17.28C20.7058 17.8267 20.2658 18.28 19.7058 18.28Z" fill="#B3B8C6"/>
<path d="M15.9992 23.2267H9.8125C9.2525 23.2267 8.8125 22.7734 8.8125 22.2267C8.8125 21.6667 9.26583 21.2267 9.8125 21.2267H15.9992C16.5592 21.2267 16.9992 21.68 16.9992 22.2267C16.9992 22.7734 16.5592 23.2267 15.9992 23.2267Z" fill="#B3B8C6"/>
</svg>
