<svg width="20" height="20" viewBox="0 0 20 20" fill="none" xmlns="http://www.w3.org/2000/svg">
<path d="M1.85583 6.73586L1.13112 6.92897L1.85583 6.73586ZM2.09494 7.63322L2.81966 7.44011L2.09494 7.63322ZM13.4096 7.94189L13.2145 7.21772L13.4096 7.94189ZM17.7083 6.78365L17.9034 7.50782L17.9048 7.50745L17.7083 6.78365ZM6.11992 9.90606L5.9248 9.18189L6.11992 9.90606ZM8.65647 9.2226L8.8516 9.94677L8.65647 9.2226ZM1.72071 5.53364L2.40596 5.8385L2.40596 5.83849L1.72071 5.53364ZM2.94772 4.88544L2.7526 4.16127L2.94772 4.88544ZM3.75483 4.76005L3.90567 4.02537L3.90567 4.02537L3.75483 4.76005ZM12.8991 8.35799L13.5685 8.69633L13.5685 8.69633L12.8991 8.35799ZM11.8764 10.3814L12.5223 10.7625C12.5305 10.7485 12.5384 10.7342 12.5457 10.7197L11.8764 10.3814ZM10.8706 11.144L11.0658 11.8682V11.8682L10.8706 11.144ZM8.98633 11.6517L8.79121 10.9276H8.79121L8.98633 11.6517ZM8.47865 11.1812L9.21212 11.3378L9.21212 11.3378L8.47865 11.1812ZM8.85603 9.41341L8.12256 9.25683L8.12256 9.25683L8.85603 9.41341ZM11.5185 3.85094L11.8398 4.52861L11.8398 4.52861L11.5185 3.85094ZM6.81158 6.12207L6.48564 5.4466V5.4466L6.81158 6.12207ZM4.86041 5.75006L5.41814 5.24863L5.41814 5.24863L4.86041 5.75006ZM18.1853 5.52205L18.7937 5.08347L18.7902 5.07873L18.1853 5.52205ZM1.13112 6.92897L1.37023 7.82633L2.81966 7.44011L2.58054 6.54275L1.13112 6.92897ZM13.6047 8.66607L17.9034 7.50782L17.5131 6.05947L13.2145 7.21772L13.6047 8.66607ZM6.31505 10.6302L8.8516 9.94677L8.46135 8.49843L5.9248 9.18189L6.31505 10.6302ZM2.58054 6.54275C2.4922 6.21119 2.44398 6.02555 2.4244 5.88983C2.40725 5.77096 2.42854 5.78773 2.40596 5.8385L1.03547 5.22878C0.897038 5.53994 0.902237 5.84388 0.939777 6.10405C0.974887 6.34737 1.05216 6.63264 1.13112 6.92897L2.58054 6.54275ZM3.14285 5.60961C3.35961 5.55121 3.47654 5.52038 3.56356 5.50485C3.63741 5.49168 3.63368 5.50082 3.604 5.49473L3.90567 4.02537C3.68203 3.97946 3.47913 3.99623 3.3001 4.02817C3.13425 4.05776 2.9446 4.10953 2.7526 4.16127L3.14285 5.60961ZM1.37023 7.82633C1.5614 8.54377 1.72299 9.1566 1.91951 9.6258C2.12499 10.1164 2.40915 10.5537 2.90582 10.8341L3.64337 9.52797C3.5506 9.47559 3.44166 9.37725 3.30305 9.04631C3.15548 8.69398 3.02196 8.19933 2.81966 7.44011L1.37023 7.82633ZM5.9248 9.18189C5.15272 9.38992 4.6448 9.52518 4.25562 9.57685C3.88648 9.62586 3.73859 9.58174 3.64337 9.52797L2.90582 10.8341C3.40005 11.1132 3.92286 11.1342 4.45304 11.0638C4.96318 10.9961 5.5832 10.8274 6.31505 10.6302L5.9248 9.18189ZM12.2298 8.01965L11.207 10.043L12.5457 10.7197L13.5685 8.69633L12.2298 8.01965ZM10.6755 10.4198L8.79121 10.9276L9.18146 12.3759L11.0658 11.8682L10.6755 10.4198ZM9.21212 11.3378L9.5895 9.57L8.12256 9.25683L7.74518 11.0246L9.21212 11.3378ZM8.79121 10.9276C9.01486 10.8673 9.27058 11.0639 9.21212 11.3378L7.74518 11.0246C7.56031 11.8906 8.3649 12.5959 9.18146 12.3759L8.79121 10.9276ZM11.2304 10.0002C11.1101 10.2041 10.911 10.3564 10.6755 10.4198L11.0658 11.8682C11.6764 11.7036 12.2009 11.3072 12.5223 10.7625L11.2304 10.0002ZM11.1971 3.17326C9.62053 3.92084 8.04802 4.69268 6.48564 5.4466L7.13752 6.79754C8.71279 6.03741 10.2686 5.27362 11.8398 4.52861L11.1971 3.17326ZM2.7526 4.16127C2.62016 4.19695 2.25451 4.27318 1.97355 4.38498C1.66358 4.50832 1.25141 4.74339 1.03547 5.22878L2.40596 5.83849C2.39244 5.86889 2.3814 5.83708 2.52815 5.77869C2.5984 5.75073 2.68372 5.72521 2.7918 5.69745C2.86875 5.6777 3.04337 5.63642 3.14285 5.60961L2.7526 4.16127ZM5.41814 5.24863C5.35934 5.18323 5.29708 5.10519 5.20861 4.99565C5.12677 4.89432 5.02641 4.77116 4.91573 4.65265C4.71005 4.43244 4.37453 4.12164 3.90567 4.02537L3.60399 5.49473C3.59737 5.49337 3.66351 5.50949 3.8195 5.67651C3.88965 5.75162 3.96013 5.83715 4.04169 5.93815C4.11663 6.03092 4.21035 6.14881 4.30268 6.2515L5.41814 5.24863ZM6.48564 5.4466C6.01995 5.67131 5.90586 5.65899 5.88387 5.65492C5.86816 5.65201 5.7597 5.62855 5.41814 5.24863L4.30267 6.2515C4.6526 6.64071 5.05581 7.02712 5.61084 7.12986C6.15961 7.23145 6.67535 7.02056 7.13752 6.79754L6.48564 5.4466ZM18.7902 5.07873C17.053 2.70823 13.835 1.92246 11.1971 3.17326L11.8398 4.52861C13.8364 3.58188 16.2741 4.18292 17.5803 5.96538L18.7902 5.07873ZM17.9048 7.50745C18.885 7.24132 19.477 6.03139 18.7937 5.08349L17.5769 5.96061C17.5839 5.97038 17.5835 5.9738 17.5836 5.97389C17.5838 5.97624 17.584 5.98474 17.5786 5.99833C17.5662 6.02964 17.5398 6.05224 17.5118 6.05984L17.9048 7.50745ZM8.8516 9.94677C8.41919 10.0633 8.03242 9.67904 8.12256 9.25683L9.5895 9.57C9.73028 8.91055 9.12683 8.31912 8.46135 8.49843L8.8516 9.94677ZM13.2145 7.21772C12.7867 7.33299 12.4292 7.62516 12.2298 8.01965L13.5685 8.69633C13.5766 8.68033 13.5902 8.66997 13.6047 8.66607L13.2145 7.21772Z" fill="#414655"/>
<path d="M1.66699 16.6665H15.0003" stroke="#414655" stroke-width="1.5" stroke-linecap="round" stroke-linejoin="round"/>
</svg>
