<svg width="32" height="32" viewBox="0 0 32 32" fill="none" xmlns="http://www.w3.org/2000/svg">
<path opacity="0.2" d="M21.586 2.66675H10.4127C5.55935 2.66675 2.66602 5.56008 2.66602 10.4134V21.5867C2.66602 26.4401 5.55935 29.3334 10.4127 29.3334H21.586C26.4394 29.3334 29.3327 26.4401 29.3327 21.5867V10.4134C29.3327 5.56008 26.4394 2.66675 21.586 2.66675Z" fill="#00AAFF"/>
<path d="M24.4141 11.8267C24.4141 12.3733 23.9741 12.8267 23.4141 12.8267H16.4141C15.8674 12.8267 15.4141 12.3733 15.4141 11.8267C15.4141 11.28 15.8674 10.8267 16.4141 10.8267H23.4141C23.9741 10.8267 24.4141 11.28 24.4141 11.8267Z" fill="#00AAFF"/>
<path d="M13.2934 10.5334L10.2934 13.5334C10.0934 13.7334 9.84008 13.8267 9.58675 13.8267C9.33341 13.8267 9.06674 13.7334 8.88008 13.5334L7.88008 12.5334C7.48008 12.1467 7.48008 11.5067 7.88008 11.1201C8.26674 10.7334 8.89341 10.7334 9.29341 11.1201L9.58675 11.4134L11.8801 9.12008C12.2667 8.73341 12.8934 8.73341 13.2934 9.12008C13.6801 9.50674 13.6801 10.1467 13.2934 10.5334Z" fill="#00AAFF"/>
<path d="M24.4141 21.1602C24.4141 21.7068 23.9741 22.1602 23.4141 22.1602H16.4141C15.8674 22.1602 15.4141 21.7068 15.4141 21.1602C15.4141 20.6135 15.8674 20.1602 16.4141 20.1602H23.4141C23.9741 20.1602 24.4141 20.6135 24.4141 21.1602Z" fill="#00AAFF"/>
<path d="M13.2934 19.8667L10.2934 22.8667C10.0934 23.0667 9.84008 23.16 9.58675 23.16C9.33341 23.16 9.06674 23.0667 8.88008 22.8667L7.88008 21.8667C7.48008 21.48 7.48008 20.84 7.88008 20.4533C8.26674 20.0667 8.89341 20.0667 9.29341 20.4533L9.58675 20.7467L11.8801 18.4533C12.2667 18.0667 12.8934 18.0667 13.2934 18.4533C13.6801 18.84 13.6801 19.48 13.2934 19.8667Z" fill="#00AAFF"/>
</svg>
