<svg width="20" viewBox="0 0 20 20" fill="none" xmlns="http://www.w3.org/2000/svg">
<path d="M12.9173 13.3335C12.4959 13.7431 10.834 14.8333 10.834 15.4168M12.9173 17.5002C12.4959 17.0906 10.834 16.0004 10.834 15.4168M10.834 15.4168L17.5007 15.4168" stroke="#6B758C" stroke-width="1.5" stroke-linecap="round" stroke-linejoin="round"/>
<path d="M9.16602 18.3335H8.93874C6.22107 18.3335 4.86224 18.3335 3.91857 17.6686C3.6482 17.4781 3.40817 17.2522 3.20577 16.9978C2.49935 16.1096 2.49935 14.8307 2.49935 12.2729V10.1517C2.49935 7.68237 2.49935 6.44771 2.89013 5.46162C3.51836 3.87635 4.84696 2.6259 6.53132 2.03462C7.57904 1.66683 8.89086 1.66683 11.5145 1.66683C13.0137 1.66683 13.7633 1.66683 14.362 1.877C15.3245 2.21487 16.0837 2.92941 16.4427 3.83528C16.666 4.39876 16.666 5.10428 16.666 6.51531V10.8335" stroke="#6B758C" stroke-width="1.5" stroke-linecap="round" stroke-linejoin="round"/>
<path d="M2.50065 10C2.50065 8.46588 3.7443 7.22222 5.27843 7.22222C5.83325 7.22222 6.48735 7.31944 7.02679 7.1749C7.50608 7.04647 7.88045 6.6721 8.00888 6.1928C8.15342 5.65336 8.05621 4.99926 8.05621 4.44444C8.05621 2.91032 9.29986 1.66667 10.834 1.66667" stroke="#6B758C" stroke-width="1.5" stroke-linecap="round" stroke-linejoin="round"/>
</svg>
