  <svg
    width="24"
    height="24"
    viewBox="0 0 20 20"
    fill="none"
    xmlns="http://www.w3.org/2000/svg"
  >
    <path
      d="M7.50033 4.18866C6.18656 3.8358 3.87709 2.88339 2.63503 3.58428C1.34431 4.31263 1.34431 9.02055 2.63503 9.7489C3.87709 10.4498 6.18656 9.49732 7.50033 9.14446"
      stroke="#414655"
      stroke-width="1.5"
      stroke-linejoin="round"
    />
    <path
      d="M12.5007 4.18866C13.8144 3.8358 16.1239 2.88339 17.3659 3.58428C18.6567 4.31263 18.6567 9.02055 17.3659 9.7489C16.1239 10.4498 13.8144 9.49732 12.5007 9.14446"
      stroke="#414655"
      stroke-width="1.5"
      stroke-linejoin="round"
    />
    <ellipse
      cx="10.0003"
      cy="6.66659"
      rx="3.33333"
      ry="3.33333"
      stroke="#414655"
      stroke-width="1.5"
      stroke-linejoin="round"
    />
    <path
      d="M8.14402 9.1665L6.95462 14.4792C6.67845 15.7128 6.54037 16.3296 6.82076 16.5305C7.77895 17.2171 8.96597 15.0812 10.0003 15.0812C10.942 15.0812 12.3478 17.1267 13.1799 16.5305C13.4603 16.3296 13.3222 15.7128 13.046 14.4792L11.8566 9.1665"
      stroke="#414655"
      stroke-width="1.5"
      stroke-linejoin="round"
    />
  </svg>