<svg width="32" height="32" viewBox="0 0 32 32" fill="none" xmlns="http://www.w3.org/2000/svg">
<path opacity="0.2" d="M28.0539 9.58675L16.0006 16.5601L3.94727 9.58675C4.4806 8.60008 5.25393 7.73341 6.1206 7.25341L13.2406 3.30675C14.7606 2.45341 17.2406 2.45341 18.7606 3.30675L25.8806 7.25341C26.7473 7.73341 27.5206 8.60008 28.0539 9.58675Z" fill="#B3B8C6"/>
<path opacity="0.4" d="M16.0008 16.56V29.3333C15.0008 29.3333 14.0008 29.12 13.2408 28.6933L6.12083 24.7467C4.5075 23.8533 3.1875 21.6133 3.1875 19.7733V12.2267C3.1875 11.3733 3.48083 10.44 3.9475 9.58667L16.0008 16.56Z" fill="#B3B8C6"/>
<path d="M28.8133 12.2267V19.7733C28.8133 21.6133 27.4933 23.8533 25.88 24.7467L18.76 28.6933C18 29.12 17 29.3333 16 29.3333V16.56L28.0533 9.58667C28.52 10.44 28.8133 11.3733 28.8133 12.2267Z" fill="#B3B8C6"/>
</svg>
