<svg width="21" viewBox="0 0 21 20" fill="none" xmlns="http://www.w3.org/2000/svg">
<path d="M14.8314 9.99992C14.8314 12.3011 12.9659 14.1666 10.6647 14.1666C8.36353 14.1666 6.49805 12.3011 6.49805 9.99992C6.49805 7.69873 8.36353 5.83325 10.6647 5.83325" stroke="#6B758C" stroke-width="1.5" stroke-linecap="round"/>
<path d="M12.332 1.83332C11.7935 1.72401 11.2361 1.66663 10.6654 1.66663C6.06299 1.66663 2.33203 5.39759 2.33203 9.99996C2.33203 14.6023 6.06299 18.3333 10.6654 18.3333C15.2677 18.3333 18.9987 14.6023 18.9987 9.99996C18.9987 9.42918 18.9413 8.87181 18.832 8.33329" stroke="#6B758C" stroke-width="1.5" stroke-linecap="round"/>
<path d="M10.1357 9.46963C9.84279 9.76252 9.84279 10.2374 10.1357 10.5303C10.4286 10.8232 10.9035 10.8232 11.1963 10.5303L10.1357 9.46963ZM17.0751 3.59089L16.3494 3.78024C16.4179 4.04292 16.6231 4.24806 16.8857 4.31659L17.0751 3.59089ZM16.6448 1.94168L15.9191 2.13103V2.13103L16.6448 1.94168ZM15.9144 1.82501L16.4447 2.35534L15.9144 1.82501ZM14.9566 2.78283L14.4262 2.2525L14.9566 2.78283ZM14.2311 5.12603L13.5054 5.31538L13.5054 5.31538L14.2311 5.12603ZM18.7243 4.02119L18.5349 4.7469L18.7243 4.02119ZM18.841 4.75159L18.3106 4.22126V4.22126L18.841 4.75159ZM17.8831 5.70941L18.4135 6.23974H18.4135L17.8831 5.70941ZM15.5399 6.43484L15.3506 7.16055H15.3506L15.5399 6.43484ZM13.9716 5.63369L10.1357 9.46963L11.1963 10.5303L15.0323 6.69435L13.9716 5.63369ZM17.8008 3.40154L17.3705 1.75234L15.9191 2.13103L16.3494 3.78024L17.8008 3.40154ZM15.3841 1.29468L14.4262 2.2525L15.4869 3.31316L16.4447 2.35534L15.3841 1.29468ZM13.5054 5.31538L13.7763 6.35337L15.2277 5.97467L14.9568 4.93669L13.5054 5.31538ZM16.8857 4.31659L18.5349 4.7469L18.9136 3.29549L17.2644 2.86518L16.8857 4.31659ZM18.3106 4.22126L17.3528 5.17908L18.4135 6.23974L19.3713 5.28192L18.3106 4.22126ZM15.7293 5.70914L14.6913 5.43831L14.3126 6.88972L15.3506 7.16055L15.7293 5.70914ZM17.3528 5.17908C16.8618 5.67013 16.2201 5.83719 15.7293 5.70914L15.3506 7.16055C16.4325 7.44282 17.605 7.04821 18.4135 6.23974L17.3528 5.17908ZM18.5349 4.7469C18.4683 4.7295 18.3975 4.68893 18.3417 4.62452C18.2882 4.56269 18.2624 4.49539 18.2534 4.43926C18.2356 4.32794 18.2788 4.25305 18.3106 4.22126L19.3713 5.28192C19.6581 4.99509 19.7973 4.59527 19.7346 4.20264C19.6696 3.79578 19.3822 3.41773 18.9136 3.29549L18.5349 4.7469ZM14.4262 2.2525C13.6178 3.06096 13.2232 4.23352 13.5054 5.31538L14.9568 4.93669C14.8288 4.44592 14.9958 3.8042 15.4869 3.31316L14.4262 2.2525ZM17.3705 1.75234C17.2482 1.28381 16.8702 0.996346 16.4633 0.931353C16.0707 0.868634 15.6709 1.00785 15.3841 1.29468L16.4447 2.35534C16.4129 2.38713 16.338 2.43036 16.2267 2.41257C16.1706 2.40361 16.1033 2.3778 16.0415 2.32424C15.977 2.26843 15.9365 2.1977 15.9191 2.13103L17.3705 1.75234Z" fill="#6B758C"/>
</svg>
