<svg width="32" height="32" viewBox="0 0 32 32" fill="none" xmlns="http://www.w3.org/2000/svg">
<path d="M25.8263 6.52003L18.0129 3.04003C16.8662 2.53337 15.1329 2.53337 13.9862 3.04003L6.17292 6.52003C4.19958 7.40003 3.90625 8.60003 3.90625 9.24003C3.90625 9.88003 4.19958 11.08 6.17292 11.96L13.9862 15.44C14.5596 15.6934 15.2796 15.8267 15.9996 15.8267C16.7196 15.8267 17.4396 15.6934 18.0129 15.44L25.8263 11.96C27.7996 11.08 28.0929 9.88003 28.0929 9.24003C28.0929 8.60003 27.8129 7.40003 25.8263 6.52003Z" fill="#B3B8C6"/>
<path opacity="0.2" d="M16.0004 22.72C15.4937 22.72 14.9871 22.6133 14.5204 22.4133L5.53375 18.4133C4.16042 17.8 3.09375 16.16 3.09375 14.6533C3.09375 14.1066 3.53375 13.6666 4.08042 13.6666C4.62708 13.6666 5.06708 14.1066 5.06708 14.6533C5.06708 15.3733 5.66708 16.3066 6.33375 16.6L15.3204 20.6C15.7471 20.7866 16.2404 20.7866 16.6671 20.6L25.6537 16.6C26.3204 16.3066 26.9204 15.3866 26.9204 14.6533C26.9204 14.1066 27.3604 13.6666 27.9071 13.6666C28.4537 13.6666 28.8937 14.1066 28.8937 14.6533C28.8937 16.1466 27.8271 17.8 26.4537 18.4133L17.4671 22.4133C17.0138 22.6133 16.5071 22.72 16.0004 22.72Z" fill="#B3B8C6"/>
<path opacity="0.2" d="M16.0004 29.3334C15.4937 29.3334 14.9871 29.2267 14.5204 29.0267L5.53375 25.0267C4.05375 24.3734 3.09375 22.8934 3.09375 21.2667C3.09375 20.72 3.53375 20.28 4.08042 20.28C4.62708 20.28 5.06708 20.72 5.06708 21.2667C5.06708 22.1067 5.56042 22.8667 6.33375 23.2134L15.3204 27.2134C15.7471 27.4 16.2404 27.4 16.6671 27.2134L25.6537 23.2134C26.4137 22.88 26.9204 22.1067 26.9204 21.2667C26.9204 20.72 27.3604 20.28 27.9071 20.28C28.4537 20.28 28.8937 20.72 28.8937 21.2667C28.8937 22.8934 27.9337 24.36 26.4537 25.0267L17.4671 29.0267C17.0138 29.2267 16.5071 29.3334 16.0004 29.3334Z" fill="#B3B8C6"/>
</svg>
