<svg width="20"  viewBox="0 0 20 20" fill="none" xmlns="http://www.w3.org/2000/svg">
<path d="M17.3117 15C17.9361 15 18.4328 14.6071 18.8787 14.0576C19.7916 12.9329 18.2928 12.034 17.7211 11.5938C17.14 11.1463 16.4912 10.8928 15.8333 10.8333M15 9.16667C16.1506 9.16667 17.0833 8.23393 17.0833 7.08333C17.0833 5.93274 16.1506 5 15 5" stroke="#414655" stroke-width="1.5" stroke-linecap="round"/>
<path d="M2.68797 15C2.06355 15 1.5669 14.6071 1.12096 14.0576C0.208082 12.9329 1.7069 12.034 2.27855 11.5938C2.85965 11.1463 3.50849 10.8928 4.16634 10.8333M4.58301 9.16667C3.43241 9.16667 2.49967 8.23393 2.49967 7.08333C2.49967 5.93274 3.43241 5 4.58301 5" stroke="#414655" stroke-width="1.5" stroke-linecap="round"/>
<path d="M6.73618 12.5925C5.8847 13.119 3.65216 14.1941 5.01192 15.5394C5.67616 16.1965 6.41594 16.6665 7.34603 16.6665H12.6533C13.5834 16.6665 14.3232 16.1965 14.9874 15.5394C16.3472 14.1941 14.1147 13.119 13.2632 12.5925C11.2665 11.3578 8.73289 11.3578 6.73618 12.5925Z" stroke="#414655" stroke-width="1.5" stroke-linecap="round" stroke-linejoin="round"/>
<path d="M12.9163 6.24992C12.9163 7.86075 11.6105 9.16659 9.99967 9.16659C8.38884 9.16659 7.08301 7.86075 7.08301 6.24992C7.08301 4.63909 8.38884 3.33325 9.99967 3.33325C11.6105 3.33325 12.9163 4.63909 12.9163 6.24992Z" stroke="#414655" stroke-width="1.5"/>
</svg>
